<svg width="10" height="20" viewBox="0 0 10 20" fill="none" xmlns="http://www.w3.org/2000/svg">
<path d="M7.43239 0C8.77239 0 9.44239 0.912 9.44239 1.957C9.44239 3.262 8.27839 4.469 6.76339 4.469C5.49439 4.469 4.75439 3.719 4.78939 2.479C4.78939 1.436 5.67039 0 7.43239 0ZM3.30939 20C2.25139 20 1.47639 19.348 2.21639 16.476L3.43039 11.384C3.64139 10.57 3.67639 10.243 3.43039 10.243C3.11339 10.243 1.74139 10.805 0.928391 11.36L0.400391 10.48C2.97239 8.294 5.93139 7.013 7.20139 7.013C8.25839 7.013 8.43439 8.286 7.90639 10.243L6.51539 15.595C6.26939 16.54 6.37439 16.866 6.62139 16.866C6.93839 16.866 7.97839 16.474 9.00039 15.659L9.60039 16.473C7.09839 19.02 4.36539 20 3.30939 20Z" fill="white" fill-opacity="0.5"/>
</svg>
