<svg width="16" height="16" viewBox="0 0 16 16" fill="none" xmlns="http://www.w3.org/2000/svg">
<path d="M14.3536 3.56212L14.7071 3.20857L14.3536 2.85502L13.145 1.64645L12.7914 1.29289L12.4379 1.64645L8 6.08432L3.56212 1.64645L3.20857 1.29289L2.85502 1.64645L1.64645 2.85502L1.29289 3.20857L1.64645 3.56212L6.08432 8L1.64645 12.4379L1.29289 12.7914L1.64645 13.145L2.85502 14.3536L3.20857 14.7071L3.56212 14.3536L8 9.91568L12.4379 14.3536L12.7914 14.7071L13.145 14.3536L14.3536 13.145L14.7071 12.7914L14.3536 12.4379L9.91568 8L14.3536 3.56212Z" fill="#B1B1B1" stroke="#B1B1B1"/>
</svg>
